<svg version="1.1" xmlns="http://www.w3.org/2000/svg" xmlns:xlink="http://www.w3.org/1999/xlink" viewBox="0 0 32 32">
	<style type="text/css">
		.iconColor0{fill:#4ABA80;}
		.iconColor1{fill:#BDDEA7;}
		.iconColor2{fill:#EB2227;}
		.iconColor3{fill:#ED573C;}
	</style>
<g>
	<g>
		<path class="iconColor0" d="M2,16C2,8.3,8.3,2,16,2c2.6,0,4.9,0.7,7,1.9l1-1.7C21.6,0.8,18.9,0,16,0C7.2,0,0,7.2,0,16
			c0,5.9,3.2,11.1,8,13.8l1-1.7C4.8,25.7,2,21.2,2,16z"/>
		<path class="iconColor1" d="M2,16c0,5.2,2.8,9.7,7,12.1L23,3.9C20.9,2.7,18.6,2,16,2C8.3,2,2,8.3,2,16z"/>
		<path class="iconColor0" d="M15.9,8.1c-0.1,0-1.6,1.1-1.6,2.4c0,1.3,1.5,2.4,1.6,2.4l0.1,0l0.1,0c0.1,0,1.6-1.1,1.6-2.4
			c0-1.3-1.5-2.4-1.6-2.4H15.9L15.9,8.1z"/>
		<path class="iconColor0" d="M12.1,11.8C10.9,11.1,9.3,12,9.2,12l-0.1,0l0,0.1c0,0.1,0.1,2,1.3,2.6c0.3,0.2,0.7,0.3,1.1,0.3
			c0.9,0,1.8-0.4,1.8-0.4l0.1,0l0-0.1C13.4,14.4,13.3,12.5,12.1,11.8z"/>
		<path class="iconColor0" d="M10.4,17.3c-1.2,0.7-1.3,2.5-1.3,2.6l0,0.1l0.1,0c0.1,0,0.9,0.4,1.8,0.4c0.4,0,0.8-0.1,1.1-0.3
			c1.2-0.7,1.3-2.5,1.3-2.6l0-0.1l-0.1,0C13.3,17.4,11.6,16.6,10.4,17.3z"/>
	</g>
	<g>
		<g>
			<path class="iconColor2" d="M24,2.2l-1,1.7c4.2,2.4,7,7,7,12.1c0,7.7-6.3,14-14,14c-2.6,0-4.9-0.7-7-1.9l-1,1.7c2.4,1.4,5.1,2.2,8,2.2
				c8.8,0,16-7.2,16-16C32,10.1,28.8,4.9,24,2.2z"/>
			<path class="iconColor3" d="M16,30c7.7,0,14-6.3,14-14c0-5.2-2.8-9.7-7-12.1L9,28.1C11.1,29.3,13.4,30,16,30z"/>
			<path class="iconColor2" d="M15.9,23.9L15.9,23.9h0.1c0.1,0,1.6-1.1,1.6-2.4c0-1.3-1.5-2.4-1.6-2.4L16,19l-0.1,0c-0.1,0-1.6,1.1-1.6,2.4
				C14.3,22.8,15.9,23.9,15.9,23.9z"/>
		</g>
		<path class="iconColor2" d="M19.9,20.2c0.3,0.2,0.7,0.3,1.1,0.3c0.9,0,1.8-0.4,1.8-0.4l0.1,0l0-0.1c0-0.1-0.1-2-1.3-2.6
			c-1.2-0.7-2.9,0.1-2.9,0.2l-0.1,0l0,0.1C18.6,17.6,18.7,19.5,19.9,20.2z"/>
		<path class="iconColor2" d="M20.5,15c0.4,0,0.8-0.1,1.1-0.3c1.2-0.7,1.3-2.5,1.3-2.6l0-0.1l-0.1,0c-0.1,0-1.8-0.8-2.9-0.2
			c-1.2,0.7-1.3,2.5-1.3,2.6l0,0.1l0.1,0C18.7,14.6,19.6,15,20.5,15z"/>
	</g>
	<animateTransform attributeType="xml"
			attributeName="transform"
			type="rotate"
			from="0 16 16"
			to="360 16 16"
			dur="0.5s"
			repeatCount="indefinite"/>

</g>
	</svg>
